<?xml version="1.0" encoding="iso-8859-1"?>
<!-- Generator: Adobe Illustrator 19.0.0, SVG Export Plug-In . SVG Version: 6.00 Build 0)  -->
<svg version="1.1" id="Layer_1" xmlns="http://www.w3.org/2000/svg" xmlns:xlink="http://www.w3.org/1999/xlink" x="0px" y="0px"
	 viewBox="0 0 512 512" style="enable-background:new 0 0 512 512;" xml:space="preserve">
<g>
	<g>
		<path d="M398.096,112H268v-12h10.2c6.616,0,12-5.408,12-12s-5.384-12-12-12h-39.844c-6.616,0-12,5.408-12,12s5.384,12,12,12H244
			v12H118.456C94.188,112,72,131.792,72,156.056V168h368v-11.944C440,131.792,422.364,112,398.096,112z"/>
	</g>
</g>
<g>
	<g>
		<path d="M501.952,196H440v-12H72v12H14.596C7.98,196,0,201.5,0,208.116v7.668C0,222.404,7.98,228,14.596,228h44.008
			C67.34,228,72,234.888,72,243.616v148.436C72,416.316,94.188,436,118.456,436h279.64C422.36,436,440,416.316,440,392.056v-148.44
			c0-8.732,9.212-15.616,17.94-15.616h44.012c6.616,0,10.048-5.596,10.048-12.216v-7.668C512,201.5,508.572,196,501.952,196z"/>
	</g>
</g>
<g>
</g>
<g>
</g>
<g>
</g>
<g>
</g>
<g>
</g>
<g>
</g>
<g>
</g>
<g>
</g>
<g>
</g>
<g>
</g>
<g>
</g>
<g>
</g>
<g>
</g>
<g>
</g>
<g>
</g>
</svg>
